<svg width="222" height="255" viewBox="0 0 222 255" fill="none" xmlns="http://www.w3.org/2000/svg">
<path d="M217.718 33.7235C177.316 -12.4229 29.7049 -8.66846 53.327 71.7953C59.6633 93.3784 67.1831 112.914 83.6948 119.948C97.0474 125.636 95.982 101.869 85.9946 90.0412C73.1331 74.8098 59.7909 67.3893 43.3851 66.2458C29.2572 65.2611 19.3413 65.9652 11.085 79.4382C-3.18865 102.731 6.87859 138.63 21.9494 172.041C33.4531 197.544 41.1788 214.084 54.0512 231.374C56.1407 234.18 69.7491 251.334 69.1483 250.971C58.528 244.555 43.6532 231.876 33.382 223.065C30.0878 220.325 27.6136 218.54 24.949 216.275C23.0056 214.624 28.7381 219.217 30.0878 220.325C41.665 229.824 55.2537 241.409 67.1013 249.692C74.5259 254.883 69.4017 232.576 66.7358 223.995C62.4541 210.213 58.738 198.251 56.6933 188.443" stroke="#6B561C" stroke-width="7" stroke-linecap="round"/>
</svg>
